<?xml version="1.0" encoding="UTF-8"?>
<svg xmlns="http://www.w3.org/2000/svg" xmlns:i="http://ns.adobe.com/AdobeIllustrator/10.0/" id="Layer_1" version="1.1" viewBox="0 0 727.47 175.99">
  <defs>
    <style>
      .st0 {
        fill: none;
      }

      .st1 {
        fill: #8ac380;
      }

      .st2 {
        fill: #3c8534;
      }
    </style>
  </defs>
  <path class="st0" d="M267.55,42.12c-4.95-4.23-11.37-6.35-19.25-6.35h-28.54v50.62h28.54c7.88,0,14.3-2.04,19.25-6.11,4.95-4.07,7.43-10.24,7.43-18.52,0-8.86-2.48-15.41-7.43-19.64Z"></path>
  <path class="st0" d="M464.86,75.55c-4.17-4.69-10-7.04-17.49-7.04s-13.57,2.33-17.84,6.99c-4.27,4.66-6.79,11.45-7.57,20.38h49.45c-.2-8.86-2.38-15.64-6.55-20.33Z"></path>
  <path class="st0" d="M698.68,73.84c-3.88-3.16-9.11-4.74-15.69-4.74-6.19,0-11.17,1.58-14.95,4.74-3.78,3.16-6.5,7.48-8.16,12.95-1.66,5.47-2.49,11.73-2.49,18.76s.83,13.06,2.49,18.47c1.66,5.41,4.38,9.67,8.16,12.8,3.78,3.13,8.76,4.69,14.95,4.69,6.58,0,11.81-1.56,15.69-4.69,3.88-3.13,6.68-7.39,8.4-12.8,1.73-5.41,2.59-11.6,2.59-18.57s-.86-13.19-2.59-18.67c-1.73-5.47-4.53-9.79-8.4-12.95Z"></path>
  <path class="st1" d="M271.6,25.95c-6.48-3.09-13.8-4.64-21.94-4.64h-47.5v131.54h17.59v-51.89h29.91c8.14,0,15.46-1.5,21.94-4.5,6.48-3,11.61-7.39,15.39-13.19,3.78-5.8,5.67-12.96,5.67-21.5s-1.89-16.11-5.67-22.14c-3.78-6.03-8.91-10.59-15.39-13.68ZM267.55,80.29c-4.95,4.07-11.37,6.11-19.25,6.11h-28.54v-50.62h28.54c7.88,0,14.3,2.12,19.25,6.35,4.95,4.24,7.43,10.78,7.43,19.64,0,8.27-2.48,14.45-7.43,18.52Z"></path>
  <path class="st1" d="M356.87,56.78c-8.01,0-14.61,1.65-19.79,4.93-5.18,3.29-9.2,6.83-12.07,10.6V21.31h-16.22v131.54h16.32v-67.43c2.74-3.65,6.38-7.05,10.95-10.21,4.56-3.16,10.16-4.74,16.81-4.74,4.36,0,7.67.99,9.92,2.98,2.25,1.99,3.79,4.74,4.64,8.26.85,3.52,1.27,7.53,1.27,12.02v59.13h16.22v-61.37c0-11.08-2.18-19.63-6.55-25.65-4.37-6.03-11.53-9.04-21.5-9.04Z"></path>
  <path class="st1" d="M465.4,136.87c-3.88,3.42-9.3,5.13-16.27,5.13-6.45,0-11.68-1.56-15.69-4.69-4.01-3.13-6.92-7.28-8.75-12.46-1.83-5.18-2.77-10.86-2.83-17.05h65.38c.13-.59.21-1.55.24-2.88.03-1.33.05-2.49.05-3.47,0-14.66-3.55-25.9-10.65-33.72-7.1-7.82-16.94-11.73-29.51-11.73-9.38,0-17.19,2.09-23.41,6.25-6.22,4.17-10.87,9.95-13.93,17.35-3.06,7.4-4.59,15.95-4.59,25.65s1.58,17.71,4.74,25.17c3.16,7.46,7.96,13.36,14.42,17.69,6.45,4.33,14.63,6.5,24.53,6.5,7.82,0,14.56-1.32,20.23-3.96,5.67-2.64,10.08-6.38,13.24-11.24,3.16-4.85,4.84-10.64,5.03-17.35h-16.12c-.2,6.45-2.23,11.39-6.11,14.81ZM429.53,75.5c4.27-4.66,10.21-6.99,17.84-6.99s13.32,2.35,17.49,7.04c4.17,4.69,6.35,11.47,6.55,20.33h-49.45c.78-8.93,3.31-15.72,7.57-20.38Z"></path>
  <polygon class="st2" points="600.9 125.98 528.68 21.31 510.79 21.31 510.79 152.85 527.41 152.85 527.41 47.99 599.53 152.85 617.51 152.85 617.51 21.31 600.9 21.31 600.9 125.98"></polygon>
  <path class="st2" d="M721.4,78.92c-3.45-7.39-8.44-13.08-14.95-17.05-6.52-3.97-14.33-5.96-23.45-5.96s-16.55,1.99-22.87,5.96c-6.32,3.97-11.16,9.66-14.51,17.05-3.36,7.4-5.03,16.24-5.03,26.53s1.68,18.91,5.03,26.24c3.35,7.33,8.19,12.95,14.51,16.86,6.32,3.91,13.94,5.86,22.87,5.86s16.94-1.95,23.45-5.86c6.51-3.91,11.5-9.53,14.95-16.86,3.45-7.33,5.18-16.08,5.18-26.24s-1.73-19.14-5.18-26.53ZM707.08,124.02c-1.73,5.41-4.53,9.67-8.4,12.8-3.88,3.13-9.11,4.69-15.69,4.69-6.19,0-11.17-1.56-14.95-4.69-3.78-3.13-6.5-7.39-8.16-12.8-1.66-5.41-2.49-11.56-2.49-18.47s.83-13.29,2.49-18.76c1.66-5.47,4.38-9.79,8.16-12.95,3.78-3.16,8.76-4.74,14.95-4.74,6.58,0,11.81,1.58,15.69,4.74,3.88,3.16,6.68,7.48,8.4,12.95,1.73,5.47,2.59,11.7,2.59,18.67s-.86,13.16-2.59,18.57Z"></path>
  <path class="st1" d="M3.32,65.36H.89v57.51c0,29.57,29.37,48.36,61.97,52.33v-66.45c0-23.97-21.02-43.4-59.54-43.4Z"></path>
  <path class="st2" d="M143.57,1.95l19.04,19.04c-.39,1.29-.8,2.56-1.23,3.83l-22.14-22.14c-6.29,1.21-12.09,2.9-17.4,5.01l33.03,33.03c-.55,1.13-1.11,2.26-1.7,3.36L118.3,9.21c-4.86,2.21-9.28,4.8-13.23,7.71l40.17,40.17c-.46.65-.93,1.31-1.4,1.95-.24.33-.49.65-.74.97l-40.87-40.87c-4.43,3.65-8.22,7.75-11.37,12.22l41.12,41.12c-.87.83-1.76,1.63-2.65,2.41l-40.48-40.48c-2.83,4.57-5.03,9.48-6.6,14.66l34.85,34.85c-1.06.65-2.13,1.26-3.2,1.86l-32.72-32.72c-1.24,5.24-1.86,10.72-1.86,16.35v2l20.55,20.55c-1.27.43-2.56.83-3.86,1.2l-16.69-16.69v99.1c44.43-2.95,83.81-38.45,83.99-83.76l.02-91.28h0c-7.02,0-13.6.49-19.74,1.42Z"></path>
  <path class="st2" d="M93.11,4.97l-4.62-4.62h-5.06l6.62,6.62c1-.68,2.02-1.35,3.07-1.99Z"></path>
  <path class="st2" d="M54.78.35l20.54,20.54c.72-.95,1.48-1.88,2.27-2.8L59.84.35h-5.06Z"></path>
  <path class="st2" d="M28.46.35l37.69,37.69c.43-1.24.89-2.46,1.4-3.66L33.52.35h-5.06Z"></path>
  <path class="st2" d="M62.69,54.79L8.24.35H3.18l59.28,59.28c.02-1.63.1-3.24.22-4.84Z"></path>
  <metadata></metadata>
</svg>
